<svg width="22" height="22" viewBox="0 0 22 22" fill="none" xmlns="http://www.w3.org/2000/svg">
<path d="M4.87993 16.0103C5.72993 15.3683 6.67594 14.8638 7.71795 14.4967C8.75999 14.1297 9.85444 13.9462 11.0013 13.9462C12.1482 13.9462 13.2452 14.1327 14.2924 14.5057C15.3395 14.8787 16.2821 15.3822 17.1201 16.0163C17.6915 15.329 18.1357 14.5629 18.4528 13.7182C18.7698 12.8734 18.9283 11.9674 18.9283 11C18.9283 8.80725 18.1551 6.93768 16.6087 5.3913C15.0623 3.84493 13.1928 3.07175 11 3.07175C8.80728 3.07175 6.93771 3.84493 5.39133 5.3913C3.84496 6.93768 3.07178 8.80725 3.07178 11C3.07178 11.9634 3.22929 12.8675 3.54433 13.7122C3.85936 14.557 4.30456 15.323 4.87993 16.0103ZM11 12.0538C10.0007 12.0538 9.15962 11.7133 8.47665 11.0323C7.79369 10.3514 7.4522 9.51123 7.4522 8.51195C7.4522 7.51268 7.79369 6.67156 8.47665 5.98857C9.15962 5.30561 10.0007 4.96412 11 4.96412C11.9993 4.96412 12.8404 5.30561 13.5234 5.98857C14.2064 6.67156 14.5479 7.51268 14.5479 8.51195C14.5479 9.51123 14.2064 10.3514 13.5234 11.0323C12.8404 11.7133 11.9993 12.0538 11 12.0538ZM10.9995 21.2033C9.58863 21.2033 8.26289 20.9358 7.0223 20.4008C5.78172 19.8659 4.70147 19.1384 3.78155 18.2185C2.86162 17.2986 2.13417 16.2181 1.5992 14.9772C1.06424 13.7363 0.796753 12.4104 0.796753 10.9995C0.796753 9.5886 1.06424 8.26286 1.5992 7.02227C2.13417 5.78169 2.86162 4.70144 3.78155 3.78152C4.70147 2.86159 5.78189 2.13414 7.0228 1.59917C8.26372 1.0642 9.58963 0.796722 11.0005 0.796722C12.4114 0.796722 13.7372 1.0642 14.9778 1.59917C16.2183 2.13414 17.2986 2.86159 18.2185 3.78152C19.1384 4.70144 19.8659 5.78186 20.4009 7.02277C20.9358 8.26369 21.2033 9.5896 21.2033 11.0005C21.2033 12.4114 20.9358 13.7371 20.4009 14.9777C19.8659 16.2183 19.1384 17.2986 18.2185 18.2185C17.2986 19.1384 16.2182 19.8659 14.9773 20.4008C13.7363 20.9358 12.4104 21.2033 10.9995 21.2033ZM11 18.9282C11.8634 18.9282 12.6748 18.8041 13.4343 18.5557C14.1937 18.3073 14.8984 17.9495 15.5484 17.4821C14.8904 17.0107 14.1867 16.6518 13.4373 16.4054C12.6878 16.1591 11.8754 16.0359 11 16.0359C10.1247 16.0359 9.31324 16.1591 8.56578 16.4054C7.81833 16.6518 7.11561 17.0107 6.45763 17.4821C7.10763 17.9495 7.81134 18.3073 8.56878 18.5557C9.32621 18.8041 10.1366 18.9282 11 18.9282ZM11 9.96412C11.4174 9.96412 11.7638 9.82644 12.0392 9.55107C12.3145 9.27572 12.4522 8.92935 12.4522 8.51195C12.4522 8.09456 12.3145 7.7472 12.0392 7.46985C11.7638 7.19248 11.4174 7.0538 11 7.0538C10.5826 7.0538 10.2363 7.19248 9.9609 7.46985C9.68554 7.7472 9.54785 8.09456 9.54785 8.51195C9.54785 8.92935 9.68554 9.27572 9.9609 9.55107C10.2363 9.82644 10.5826 9.96412 11 9.96412Z" fill="white"/>
</svg>
