<svg width="21" height="21" viewBox="0 0 21 21" fill="none" xmlns="http://www.w3.org/2000/svg">
<path d="M7.00001 20.1793C6.45001 20.1793 5.97918 19.9835 5.58751 19.5919C5.19585 19.2002 5.00001 18.7293 5.00001 18.1793C5.00001 17.6294 5.19585 17.1585 5.58751 16.7668C5.97918 16.3752 6.45001 16.1793 7.00001 16.1793C7.55001 16.1793 8.02085 16.3752 8.41251 16.7668C8.80418 17.1585 9.00001 17.6294 9.00001 18.1793C9.00001 18.7293 8.80418 19.2002 8.41251 19.5919C8.02085 19.9835 7.55001 20.1793 7.00001 20.1793ZM17 20.1793C16.45 20.1793 15.9792 19.9835 15.5875 19.5919C15.1958 19.2002 15 18.7293 15 18.1793C15 17.6294 15.1958 17.1585 15.5875 16.7668C15.9792 16.3752 16.45 16.1793 17 16.1793C17.55 16.1793 18.0208 16.3752 18.4125 16.7668C18.8042 17.1585 19 17.6294 19 18.1793C19 18.7293 18.8042 19.2002 18.4125 19.5919C18.0208 19.9835 17.55 20.1793 17 20.1793ZM6.29946 4.17935L8.56196 8.90435H15.5381L18.1326 4.17935H6.29946ZM5.25381 2H19.7766C20.2302 2 20.5753 2.20072 20.8119 2.60217C21.0485 3.00362 21.0573 3.41123 20.8381 3.825L17.4256 9.99185C17.2343 10.3371 16.9776 10.6064 16.6555 10.7997C16.3334 10.993 15.9809 11.0897 15.5978 11.0897H8.20164L7.15546 13H19.0897V15.1793H7.00001C6.20618 15.1793 5.60962 14.8342 5.21034 14.144C4.81106 13.4538 4.79638 12.7698 5.16631 12.0919L6.49839 9.68968L2.94621 2.17935H0.910339V0H4.30381L5.25381 2Z" fill="white"/>
</svg>
